<svg version="1.1" xmlns="http://www.w3.org/2000/svg" width="1024px" height="1024px" transform="rotate(0) scale(1, 1)">
<path d="M0 0 C1.36793585 -0.00187148 2.73587118 -0.00417352 4.10380566 -0.00686532 C7.83933015 -0.0129485 11.57483213 -0.01285385 15.31036043 -0.01167095 C19.34878155 -0.01146604 23.38719561 -0.01699435 27.4256134 -0.02172852 C35.33045707 -0.03001749 43.23529328 -0.0327826 51.14014094 -0.03334089 C57.57232164 -0.03381707 64.00449991 -0.0358769 70.43667984 -0.03904152 C88.7036833 -0.04784482 106.9706809 -0.05246163 125.2376865 -0.05171105 C126.22144753 -0.05167109 127.20520855 -0.05163113 128.21878052 -0.05158997 C129.69624076 -0.05152864 129.69624076 -0.05152864 131.20354868 -0.05146609 C147.14556583 -0.05106014 163.0875593 -0.06061749 179.02956961 -0.07472833 C195.42872441 -0.08912829 211.82786769 -0.09599647 228.22702897 -0.09513456 C237.42165574 -0.09480374 246.61625771 -0.09749973 255.81087875 -0.10831261 C263.64383498 -0.11746556 271.47675519 -0.11955396 279.30971448 -0.11280318 C283.29801169 -0.10956144 287.28623997 -0.10939511 291.27453041 -0.11815643 C337.27017257 -0.21288524 337.27017257 -0.21288524 345.29006958 5.13371277 C346.86796968 5.89507715 348.45194848 6.6439048 350.04006958 7.38371277 C354.80891143 9.75083021 358.46641795 12.46482799 362.29006958 16.13371277 C362.85210083 16.62226746 363.41413208 17.11082214 363.99319458 17.61418152 C375.22399656 27.85849414 381.034457 42.19274094 382.29006958 57.13371277 C382.43330047 61.46002915 382.42932949 65.78362776 382.42378235 70.11201477 C382.42604791 71.41162545 382.42831346 72.71123613 382.43064767 74.05022895 C382.43674287 77.64223403 382.43663477 81.23421574 382.4354533 84.8262248 C382.43524871 88.70641911 382.44077365 92.58660603 382.44551086 96.46679688 C382.45380588 104.06376052 382.4565652 111.6607164 382.45712324 119.25768419 C382.45759903 125.4363411 382.45965689 131.61499547 382.46282387 137.79365158 C382.47162794 155.32813997 382.47624373 172.86262225 382.47549339 190.39711286 C382.47543346 191.81408821 382.47543346 191.81408821 382.47537231 193.25968933 C382.47533143 194.20549909 382.47529055 195.15130884 382.47524843 196.12577949 C382.47484222 211.44472452 382.48440628 226.76364494 382.49851068 242.08258285 C382.51289326 257.82849826 382.5197798 273.57440168 382.5189169 289.32032382 C382.51858555 298.15373135 382.52130571 306.98711309 382.53209496 315.82051468 C382.54122483 323.34334205 382.54335491 330.86613194 382.53658553 338.38896246 C382.53333261 342.22258312 382.53321889 346.05613199 382.54193878 349.88974571 C382.55132112 354.05772043 382.54499564 358.22553072 382.53730774 362.39350891 C382.5424513 363.58848468 382.54759487 364.78346045 382.55289429 366.0146476 C382.4709356 386.22710959 378.31322536 402.89048069 364.16506958 417.82121277 C358.66876628 423.11958825 350.20161577 431.13371277 342.29006958 431.13371277 C342.29006958 432.12371277 342.29006958 433.11371277 342.29006958 434.13371277 C341.30006958 433.80371277 340.31006958 433.47371277 339.29006958 433.13371277 C338.03997447 433.43757212 336.78987936 433.74143147 335.50190258 434.05449867 C329.01784508 435.6041473 322.53022491 435.41737129 315.90074158 435.40113831 C314.44689486 435.40487943 312.99305015 435.40948279 311.53920859 435.41486895 C307.56179249 435.42705737 303.58446077 435.42684341 299.60703027 435.4244802 C295.31034395 435.42407098 291.0136843 435.43512127 286.7170105 435.44459534 C278.30536502 435.46118367 269.89374758 435.46670391 261.48208711 435.46782009 C254.64174246 435.46877163 247.80140703 435.47288721 240.96106529 435.47922134 C221.5510057 435.49682814 202.1409682 435.50606114 182.73090056 435.5045604 C181.68525788 435.50448048 180.6396152 435.50440057 179.56228638 435.50431824 C177.99189864 435.5041956 177.99189864 435.5041956 176.38978591 435.50407048 C159.42837913 435.50325782 142.46706121 435.52239179 125.50568012 435.55059497 C108.07374997 435.57935095 90.64186312 435.59313376 73.20990866 435.59140742 C63.42968885 435.59074444 53.64956218 435.5961964 43.86936378 435.61776352 C35.54137912 435.63601109 27.21352983 435.64029337 18.88553379 435.62674467 C14.64070852 435.62023293 10.39614268 435.62003253 6.15134239 435.63745117 C2.25690426 435.65326698 -1.63707058 435.65023253 -5.53149799 435.63288291 C-6.93187468 435.62983159 -8.3322867 435.63337406 -9.73262169 435.64460306 C-26.43940116 435.76957782 -41.82013855 431.42545298 -53.95602417 419.55168152 C-55.63395155 417.99036339 -55.63395155 417.99036339 -57.87399292 417.59855652 C-58.47985229 417.44515808 -59.08571167 417.29175964 -59.70993042 417.13371277 C-60.4189898 415.1483465 -61.07687221 413.14460355 -61.70993042 411.13371277 C-62.85461792 409.61777527 -62.85461792 409.61777527 -64.02243042 408.07121277 C-71.17252734 398.55185296 -74.03511174 385.7923138 -73.95043945 374.08537292 C-73.9521483 373.20874087 -73.95385715 372.33210882 -73.95561779 371.42891216 C-73.95889537 368.51011502 -73.94793763 365.59155101 -73.9369812 362.67277527 C-73.93641671 360.57309983 -73.93673438 358.47342399 -73.93786621 356.37374878 C-73.93843925 350.68635263 -73.92669269 344.9990411 -73.9127183 339.31166458 C-73.90020294 333.36327292 -73.8990398 327.41487924 -73.89666748 321.46647644 C-73.89045509 310.20798818 -73.8740475 298.94953883 -73.8539685 287.6910677 C-73.83160204 274.8713008 -73.82061418 262.05153204 -73.81057763 249.23175049 C-73.78968108 222.86571636 -73.75450975 196.49971674 -73.70993042 170.13371277 C-74.36993042 169.80371277 -75.02993042 169.47371277 -75.70993042 169.13371277 C-75.37993042 168.80371277 -75.04993042 168.47371277 -74.70993042 168.13371277 C-74.64024885 165.08544613 -74.63969732 162.05681883 -74.67086792 159.00871277 C-74.75576823 141.53592352 -74.58884112 124.06526319 -74.42241287 106.59335327 C-74.37206346 101.30409901 -74.32561219 96.01487157 -74.28805542 90.72550964 C-74.25114001 85.5365559 -74.20483233 80.34776474 -74.15186691 75.15895081 C-74.13344301 73.20066632 -74.11829159 71.24234801 -74.10658646 69.28401184 C-74.08965161 66.55796005 -74.06062136 63.83228192 -74.02877808 61.10636902 C-74.02661789 60.31256836 -74.0244577 59.5187677 -74.02223206 58.70091248 C-73.9456637 53.55394387 -73.12169137 49.08777822 -71.70993042 44.13371277 C-72.36993042 43.80371277 -73.02993042 43.47371277 -73.70993042 43.13371277 C-72.71993042 43.13371277 -71.72993042 43.13371277 -70.70993042 43.13371277 C-70.59778198 42.42730652 -70.48563354 41.72090027 -70.37008667 40.99308777 C-67.32493176 27.80342272 -57.68648643 17.45141677 -46.70993042 10.13371277 C-31.26649228 1.57785738 -17.3954609 -0.02150078 0 0 Z M263.67141724 83.15109253 C263.05613254 83.76210511 262.44084784 84.37311768 261.80691814 85.00264579 C259.76060336 87.04076425 257.73260626 89.09615981 255.70413208 91.15202332 C254.23606491 92.62150167 252.76689423 94.08987829 251.29670715 95.55723572 C247.31702692 99.53548317 243.35293639 103.52894245 239.39148331 107.52532935 C235.24579394 111.70230447 231.08591235 115.86509633 226.92752075 120.02941895 C219.05891698 127.91355451 211.20314417 135.81034727 203.35191059 143.71177655 C194.41136174 152.70823915 185.45658754 161.69048476 176.50059509 170.67156923 C158.08122369 189.14318381 139.6797727 207.63256461 121.29006958 226.13371277 C118.494084 224.85862344 116.45638321 223.54593763 114.29911804 221.36308289 C113.45608627 220.51767189 113.45608627 220.51767189 112.59602356 219.65518188 C111.99176041 219.03901505 111.38749725 218.42284821 110.7649231 217.78800964 C110.11888123 217.13744095 109.47283936 216.48687225 108.80722046 215.81658936 C107.40656756 214.40498696 106.00819663 212.99111746 104.61184883 211.57525635 C102.40149144 209.33473982 100.18452555 207.10096297 97.96559143 204.86894226 C91.65853889 198.52213163 85.36424025 192.16272554 79.07302856 185.80021667 C75.22329149 181.90777829 71.36628276 178.02266488 67.50489616 174.14178467 C66.03518038 172.66149827 64.56838737 171.17830405 63.10458565 169.69216919 C61.0580167 167.61442397 59.00241074 165.54602961 56.9446106 163.47941589 C56.34237167 162.86324905 55.74013275 162.24708221 55.11964417 161.61224365 C50.60801044 157.11046381 46.89425274 154.85221601 40.35256958 154.82121277 C39.13247192 154.79607605 39.13247192 154.79607605 37.88772583 154.77043152 C31.38686374 155.67957464 27.13290694 159.79157988 22.64944458 164.20011902 C22.04118835 164.7936467 21.43293213 165.38717438 20.8062439 165.99868774 C19.52822226 167.25285404 18.25433916 168.51125003 16.98440552 169.77360535 C15.05062932 171.68577104 13.08950825 173.5666003 11.12600708 175.44816589 C2.64535167 183.19955022 2.64535167 183.19955022 -0.84164143 193.6902256 C-0.40947643 201.70770008 3.23836856 206.95912517 8.837677 212.37834167 C9.82855316 213.37294151 9.82855316 213.37294151 10.83944702 214.38763428 C13.0107443 216.55984424 15.20256898 218.70996508 17.39553833 220.86027527 C18.92032289 222.37639346 20.44384779 223.89377945 21.96617126 225.41236877 C25.96931895 229.39832941 29.9905697 233.36553968 34.01553345 237.32945251 C37.28556818 240.55595488 40.54261421 243.79539178 43.79900646 247.03565407 C47.70197998 250.91893493 51.61030918 254.79680168 55.52053833 258.67277527 C56.25870474 259.40451588 56.99687115 260.13625648 57.75740623 260.89017105 C59.86732784 262.97890261 61.98073806 265.06403267 64.0954895 267.14787292 C65.01307793 268.05671486 65.01307793 268.05671486 65.94920349 268.98391724 C69.70258509 272.67309142 73.57398847 276.16183737 77.59769154 279.55508995 C79.29006958 281.13371277 79.29006958 281.13371277 81.29006958 284.13371277 C81.95006958 284.13371277 82.61006958 284.13371277 83.29006958 284.13371277 C83.29006958 284.79371277 83.29006958 285.45371277 83.29006958 286.13371277 C85.12340291 288.30037944 85.12340291 288.30037944 87.29006958 290.13371277 C87.95006958 290.13371277 88.61006958 290.13371277 89.29006958 290.13371277 C89.29006958 290.79371277 89.29006958 291.45371277 89.29006958 292.13371277 C90.95222226 293.47266909 92.61970565 294.80501419 94.29006958 296.13371277 C94.90495239 296.91746277 95.51983521 297.70121277 96.15335083 298.50871277 C98.32392294 301.17530227 100.54256404 303.18231005 103.22756958 305.32121277 C104.06159302 305.99539246 104.89561646 306.66957214 105.75491333 307.36418152 C109.54634749 310.01059088 112.96573856 311.42394438 117.60256958 311.50871277 C118.29995239 311.53707214 118.99733521 311.56543152 119.71585083 311.59465027 C128.44348757 310.03188679 133.97174885 304.00567214 139.931427 297.94645691 C140.86090652 297.01756149 141.79038605 296.08866608 142.74803162 295.13162231 C145.28163863 292.59915703 147.80276887 290.05459842 150.32175612 287.50760198 C152.96805228 284.83616631 155.62580979 282.17618159 158.28233337 279.5149231 C163.30970789 274.47514216 168.32680926 269.42526292 173.34024173 264.37161678 C179.0307019 258.63649591 184.73247085 252.91267578 190.43525922 247.18981755 C200.18718317 237.40319053 209.93059493 227.6081643 219.66455078 217.80366516 C225.51545435 211.9106458 231.38441509 206.03643418 237.27371216 200.18180847 C243.11298769 194.37509016 248.94726716 188.56337931 254.77866077 182.74874592 C258.30222378 179.23567049 261.82765434 175.72451018 265.35720825 172.217453 C268.77783138 168.81848618 272.1936113 165.41472222 275.60602379 162.00751305 C276.90769911 160.70954105 278.21113715 159.41333438 279.51633644 158.11890602 C281.33333201 156.31633291 283.144069 154.50769539 284.95339966 152.69743347 C285.49723801 152.16078568 286.04107635 151.62413788 286.60139465 151.07122803 C289.42809295 148.57528858 289.42809295 148.57528858 290.29006958 145.13371277 C290.8396936 144.90425964 291.38931763 144.67480652 291.95559692 144.43840027 C296.72632492 141.77214107 300.43471061 137.52106886 304.30862427 133.70549011 C305.37429639 132.66281577 306.44883244 131.62911992 307.53225708 130.60490417 C315.88859513 122.9452159 315.88859513 122.9452159 319.39968872 112.4896698 C318.94474969 102.71202697 313.28953098 97.27530618 306.56668091 90.79289246 C304.97561777 89.25682843 303.41012386 87.69786145 301.84671021 86.13371277 C293.66708236 77.93980506 293.66708236 77.93980506 282.91506958 74.25871277 C282.22671021 74.15816589 281.53835083 74.05761902 280.82913208 73.95402527 C273.40628838 74.47933421 268.6467103 78.04557863 263.67141724 83.15109253 Z M252.29006958 324.13371277 C246.89585401 330.63767581 244.08014464 338.83310812 244.41506958 347.28996277 C245.93123831 358.01144163 249.92405118 365.22599115 258.29006958 372.13371277 C265.52808552 377.13667675 274.34073339 378.84849899 282.97756958 377.50871277 C292.10657956 375.43393777 298.33884121 371.4176996 304.29006958 364.13371277 C309.81320338 355.34763248 310.88348147 345.47152675 308.67678833 335.30949402 C306.39028273 328.89317653 302.43798046 323.58181453 297.29006958 319.13371277 C295.64641629 318.41216854 293.98067383 317.73710277 292.29006958 317.13371277 C291.26913208 316.36027527 291.26913208 316.36027527 290.22756958 315.57121277 C278.62743226 306.96465927 260.78576134 314.8984407 252.29006958 324.13371277 Z " fill="#ffffff" transform="translate(357.7099304199219,141.8662872314453)"/>
<path d="M0 0 C0.94676814 -0.00491497 1.89353627 -0.00982995 2.86899436 -0.01489386 C6.04179533 -0.02648497 9.21379403 -0.00955458 12.38656235 0.00723743 C14.68400748 0.00477692 16.98145129 0.00056185 19.27889037 -0.00525731 C25.59246459 -0.01614905 31.90577511 -0.00206804 38.21932364 0.01606309 C44.32855893 0.03166782 50.43778988 0.02454816 56.54703641 0.0198702 C69.04340491 0.01097083 81.53969327 0.02081393 94.03604507 0.04149914 C106.4106999 0.06195055 118.78532007 0.07455192 131.15999222 0.07653713 C131.92967061 0.07666697 132.69934901 0.0767968 133.49235099 0.07693057 C136.61663819 0.07743051 139.7409254 0.07787048 142.86521263 0.07823266 C171.33554839 0.08153536 199.80583586 0.10388176 228.27614975 0.13829517 C255.16156828 0.17077742 282.04696243 0.19202984 308.93239975 0.19981861 C310.17516569 0.20018317 310.17516569 0.20018317 311.44303801 0.2005551 C315.61599859 0.20177715 319.78895918 0.20298045 323.96191977 0.20417689 C325.19707134 0.2045313 325.19707134 0.2045313 326.45717548 0.20489286 C328.11757548 0.20536703 329.77797549 0.20583719 331.4383755 0.20630332 C357.86244897 0.21377272 384.28651793 0.22954952 410.71058615 0.2475025 C418.45000188 0.25274993 426.18941756 0.25769376 433.92883396 0.26186442 C450.20457543 0.27073953 466.4803057 0.28237446 482.75603655 0.30343046 C489.48857474 0.31207692 496.22110413 0.31912041 502.95364761 0.32194614 C509.10928898 0.32460556 515.26490656 0.33187317 521.4205384 0.34293661 C523.65453958 0.34615253 525.88854394 0.34767435 528.12254742 0.34738632 C531.14520269 0.34726181 534.16778532 0.35320744 537.19042969 0.36076355 C538.06965092 0.35927993 538.94887215 0.3577963 539.85473645 0.35626772 C540.65865578 0.35953991 541.46257512 0.36281211 542.29085565 0.36618346 C543.32793761 0.36729193 543.32793761 0.36729193 544.38597073 0.36842279 C546.47175589 0.50327462 548.33514218 0.92933331 550.34353256 1.49498463 C550.34353256 2.15498463 550.34353256 2.81498463 550.34353256 3.49498463 C550.92103256 3.72185963 551.49853256 3.94873463 552.09353256 4.18248463 C556.99430535 7.04126875 558.92086813 11.18452169 560.34353256 16.49498463 C560.665792 19.45835493 560.71355925 22.39096786 560.71853256 25.36998463 C560.74302475 26.13439869 560.76751694 26.89881275 560.79275131 27.68639088 C560.82192918 33.41497864 559.51677331 37.70236975 556.34353256 42.49498463 C551.30464176 47.4046731 546.66971956 48.75367127 539.73025131 48.69029713 C538.48308334 48.68385181 537.23591537 48.6774065 535.95095444 48.67076588 C534.01059311 48.64562916 534.01059311 48.64562916 532.03103256 48.61998463 C530.71812241 48.61096119 529.40521225 48.60193775 528.05251694 48.59264088 C524.81599401 48.56910253 521.57988808 48.53449634 518.34353256 48.49498463 C518.5991748 49.83470074 518.5991748 49.83470074 518.85998154 51.20148182 C521.3917253 64.82143479 523.20413696 78.53531367 525.04757738 92.26222873 C525.51028183 95.70168194 525.97709485 99.14057756 526.44347763 102.57953358 C527.3231572 109.0702926 528.1995433 115.56149135 529.07455194 122.05288154 C530.64468223 133.70008107 532.22115049 145.34642425 533.79789484 156.99272996 C534.4385605 161.72595578 535.07720383 166.45945112 535.71526718 171.19302845 C536.04917974 173.66502123 536.38311217 176.13701133 536.71706772 178.6089983 C536.86772186 179.7295612 537.01837601 180.85012409 537.17359543 182.00464344 C537.90252711 190.49502379 537.90252711 190.49502379 540.34353256 198.49498463 C540.51469118 200.29904867 540.63889067 202.10762858 540.74197006 203.91685963 C541.13874518 209.5712941 541.78332522 215.14778027 542.57009506 220.76060963 C542.68254562 221.57130909 542.79499619 222.38200855 542.91085434 223.21727467 C543.37903672 226.57754015 543.85156844 229.93706577 544.33767319 233.29478931 C544.6958788 235.78211542 545.04016033 238.27106993 545.38259506 240.76060963 C545.49398819 241.50457996 545.60538132 242.2485503 545.72014999 243.01506519 C546.58115389 249.39277244 547.22883034 256.5562253 543.15603256 261.93248463 C537.09976208 267.45041996 529.11836945 267.53106652 521.24197006 267.47154713 C513.83158656 267.08539811 509.50249009 265.83559906 504.28445053 260.31749439 C501.98941184 256.98001737 501.34892653 254.00652702 500.78884506 250.08482838 C500.67195328 249.35110508 500.55506149 248.61738178 500.43462753 247.86142445 C500.05128001 245.40847468 499.69486334 242.95271541 499.34353256 240.49498463 C499.21651962 239.62448475 499.08950668 238.75398487 498.95864487 237.85710621 C498.14152449 232.23018152 497.36488875 226.59841076 496.60866928 220.9630022 C496.2156826 218.03625976 495.81710071 215.11031815 495.41775131 212.18443775 C495.16091598 210.28929947 494.90439429 208.39411864 494.64822006 206.49889088 C494.53154984 205.64138737 494.41487961 204.78388386 494.29467392 203.90039539 C493.51910306 198.10088189 492.92648431 192.32450207 492.34353256 186.49498463 C344.17353256 186.49498463 196.00353256 186.49498463 43.34353256 186.49498463 C42.84853256 192.92998463 42.84853256 192.92998463 42.34353256 199.49498463 C42.10669357 201.6715533 41.85173375 203.84645195 41.55910873 206.01622486 C41.41192902 207.11703892 41.2647493 208.21785297 41.11310959 209.35202503 C40.95582886 210.49103764 40.79854813 211.63005024 40.63650131 212.80357838 C40.46983459 214.01393253 40.30316788 215.22428669 40.13145065 216.47131824 C39.77998712 219.00517628 39.42609349 221.53869836 39.06985092 224.07188892 C38.5293042 227.9448682 38.00971475 231.82033198 37.49001694 235.6961565 C37.14430503 238.1696449 36.79734386 240.64295908 36.44900131 243.11607838 C36.29779327 244.2692606 36.14658524 245.42244282 35.99079514 246.61056995 C34.89594173 254.15079333 33.51370512 258.42926586 27.97243881 263.78795338 C20.3889237 268.7121675 8.94284449 268.23247371 0.34353256 266.49498463 C-3.47339871 265.12549952 -6.0279891 263.31200646 -8.53146744 260.05748463 C-10.690714 255.1392008 -10.69892679 251.25609857 -9.98459244 245.96373463 C-9.81604752 244.68780445 -9.64750259 243.41187428 -9.47385025 242.09727955 C-9.28482313 240.72983401 -9.09569349 239.36240265 -8.90646744 237.99498463 C-8.71924145 236.5944436 -8.53272261 235.19380787 -8.34689713 233.79308033 C-7.51528282 227.56610478 -6.64415476 221.345543 -5.71896744 215.13170338 C-5.51158951 213.7317815 -5.51158951 213.7317815 -5.30002213 212.30357838 C-5.04784057 210.6240367 -4.78870736 208.94551526 -4.52072525 207.26842213 C-3.77753824 202.38045825 -3.56855432 197.69448645 -3.71017838 192.75011158 C-3.6560103 190.47579114 -3.41481646 188.63959803 -2.65646744 186.49498463 C-1.99646744 186.16498463 -1.33646744 185.83498463 -0.65646744 185.49498463 C-0.28262736 183.12483749 -0.28262736 183.12483749 -0.20163345 180.18150806 C0.15632699 174.46714881 0.76557907 168.84564906 1.55862045 163.17564869 C1.67639564 162.33279694 1.79417082 161.48994518 1.91551495 160.62155247 C2.16618361 158.84202093 2.41825318 157.06268624 2.67161369 155.28353596 C3.07490225 152.44937487 3.47266185 149.61448416 3.86903 146.77934742 C4.99558544 138.72856944 6.13213386 130.67921089 7.27151108 122.63023853 C7.97161903 117.68171488 8.66570208 112.73237473 9.356287 107.78251362 C9.61904671 105.9084226 9.88416045 104.03465998 10.15174675 102.16125202 C10.52605652 99.54050378 10.8927221 96.91878493 11.2578392 94.29674244 C11.36847702 93.53600925 11.47911484 92.77527607 11.59310532 91.99149036 C12.30721308 86.78506123 12.43382083 81.75066761 12.34353256 76.49498463 C12.67353256 76.49498463 13.00353256 76.49498463 13.34353256 76.49498463 C13.85140302 73.49613049 14.34999881 70.49620336 14.84353256 67.49498463 C14.9866185 66.65580494 15.12970444 65.81662525 15.27712631 64.95201588 C16.12833498 59.72316262 16.49067839 54.79223436 16.34353256 49.49498463 C15.5570433 49.48040211 14.77055405 49.46581959 13.96023178 49.45079517 C10.37918298 49.376091 6.79904346 49.27950256 3.21853256 49.18248463 C1.98103256 49.15992603 0.74353256 49.13736744 -0.53146744 49.11412525 C-1.73029556 49.07867603 -2.92912369 49.04322681 -4.16427994 49.00670338 C-5.26401138 48.98051929 -6.36374283 48.95433521 -7.49679947 48.92735767 C-13.61181521 48.09057102 -17.63722439 45.1976278 -21.39865494 40.51060963 C-25.84078145 33.39217086 -25.38905112 23.84950244 -23.96896744 15.86998463 C-22.65554116 10.6796863 -20.45044375 6.42596159 -15.9651909 3.32610713 C-10.54705949 0.45329769 -6.0746977 -0.07138742 0 0 Z M62.34353256 48.49498463 C53.5854258 96.83792349 53.5854258 96.83792349 49.34353256 145.49498463 C193.55353256 145.49498463 337.76353256 145.49498463 486.34353256 145.49498463 C486.34353256 142.85498463 486.34353256 140.21498463 486.34353256 137.49498463 C486.01353256 137.16498463 485.68353256 136.83498463 485.34353256 136.49498463 C485.152803 134.62401841 485.01794154 132.74731484 484.90603256 130.86998463 C484.54030591 125.63370783 484.02633679 120.4473624 483.34353256 115.24498463 C483.17853256 113.98170338 483.01353256 112.71842213 482.84353256 111.41685963 C482.65312803 108.61201107 482.65312803 108.61201107 481.34353256 107.49498463 C481.05814934 104.16551369 480.89460623 100.83600835 480.72243881 97.49889088 C480.64135703 94.38410509 480.64135703 94.38410509 478.34353256 92.49498463 C478.67353256 92.49498463 479.00353256 92.49498463 479.34353256 92.49498463 C478.73559227 83.03491379 477.66314573 73.6929942 476.34353256 64.30748463 C476.16564194 62.99973072 475.98775131 61.69197681 475.80447006 60.344594 C475.20625106 54.24034967 475.20625106 54.24034967 473.34353256 48.49498463 C337.71353256 48.49498463 202.08353256 48.49498463 62.34353256 48.49498463 Z " fill="#ffffff" transform="translate(243.65646743774414,614.50501537323)"/>
<path d="M0 0 C1.38005163 -0.00187137 2.76010272 -0.00417337 4.14015299 -0.00686532 C7.90849786 -0.01294852 11.67682044 -0.01285388 15.44516909 -0.01167095 C19.51803018 -0.01146608 23.59088427 -0.0169936 27.66374207 -0.02172852 C35.63106083 -0.03001442 43.5983722 -0.03278234 51.56569492 -0.03334089 C58.03854421 -0.03381664 64.51139106 -0.03587429 70.98423958 -0.03904152 C89.33735929 -0.04783924 107.69047317 -0.05246179 126.04359501 -0.05171105 C127.03182233 -0.05167109 128.02004966 -0.05163113 129.03822327 -0.05158997 C130.52237243 -0.05152864 130.52237243 -0.05152864 132.0365044 -0.05146609 C148.09993697 -0.05105894 164.16334619 -0.06064802 180.226772 -0.07472833 C196.72189575 -0.08907315 213.21700809 -0.0959997 229.71213824 -0.09513456 C238.97273374 -0.09480213 248.23330469 -0.09756964 257.49389458 -0.10831261 C265.37088822 -0.11739226 273.24784616 -0.1196135 281.12484276 -0.11280318 C285.14546296 -0.10952628 289.16601456 -0.10952341 293.18662834 -0.11815643 C296.86321888 -0.12597002 300.5396858 -0.12464326 304.21627314 -0.1158723 C306.18398714 -0.11359061 308.15170482 -0.1212057 310.11940426 -0.12911195 C311.27918114 -0.12451315 312.43895802 -0.11991435 313.63387966 -0.1151762 C315.14140227 -0.11550225 315.14140227 -0.11550225 316.67937988 -0.11583489 C319.17567444 0.13371277 319.17567444 0.13371277 322.17567444 2.13371277 C318.44707 2.99590672 314.99602794 3.26266287 311.17244244 3.27237797 C309.96071572 3.27785241 308.748989 3.28332686 307.5005433 3.28896719 C306.15931816 3.29004331 304.81809294 3.29102802 303.47686768 3.29193115 C302.04949486 3.29649824 300.62212339 3.30149848 299.19475347 3.30689472 C295.27251016 3.32046846 291.35027552 3.32789198 287.42801487 3.33432138 C283.1983324 3.34232867 278.96866793 3.35602532 274.73899841 3.36903381 C267.41081494 3.39079188 260.08262963 3.40893883 252.75443077 3.42463875 C242.15906247 3.44734346 231.56371411 3.47548547 220.96836273 3.50495803 C203.77844223 3.55262655 186.58851358 3.59589275 169.39857483 3.63639832 C152.69934962 3.675757 136.00013167 3.71718413 119.30091858 3.76139832 C117.75711879 3.76548472 117.75711879 3.76548472 116.18213113 3.76965369 C111.01897963 3.78333323 105.85582824 3.79705349 100.6926769 3.810794 C57.85369119 3.92474716 15.0146898 4.03155909 -27.82432556 4.13371277 C-20.59303198 -1.97332858 -8.95496704 -0.01096683 0 0 Z " fill="#ffffff" transform="translate(357.82432556152344,141.8662872314453)"/>
<path d="M0 0 C1.19580209 -0.00248975 2.39160417 -0.0049795 3.62364268 -0.0075447 C4.93880469 0.00508478 6.25396669 0.01771425 7.60898209 0.03072643 C9.01898924 0.03354831 10.42899957 0.0350468 11.83900952 0.03533334 C15.71804234 0.03996293 19.59677032 0.06341194 23.47570729 0.08987224 C27.65696657 0.11511951 31.83826228 0.12300209 36.01958084 0.13297558 C43.26545522 0.15264397 50.51121564 0.18335544 57.75701523 0.22153187 C68.23325913 0.27671284 78.7095122 0.31529458 89.18584219 0.34980311 C106.18227207 0.40624033 123.178619 0.47613342 140.17496109 0.55445385 C156.68698247 0.63051375 173.19901057 0.70025798 189.7110939 0.7614851 C190.7286085 0.76526027 191.7461231 0.76903543 192.79447147 0.772925 C197.89895685 0.79182453 203.00344268 0.81059966 208.10792875 0.82931292 C250.4661343 0.9847609 292.82422842 1.16203183 335.18228531 1.35352612 C335.18228531 1.68352612 335.18228531 2.01352612 335.18228531 2.35352612 C221.33228531 2.68352612 107.48228531 3.01352612 -9.81771469 3.35352612 C-5.5946253 0.18620907 -4.93939666 -0.01994617 0 0 Z " fill="#ffffff" transform="translate(339.8177146911621,142.64647388458252)"/>
<path d="M0 0 C5.82285562 1.36101213 8.79059708 4.24042908 12.83154297 8.37744141 C13.48590836 9.03122269 14.14027374 9.68500397 14.81446838 10.3585968 C16.96666359 12.51357007 19.10435757 14.68234541 21.2421875 16.8515625 C22.73489354 18.35173185 24.22848743 19.85101824 25.72293091 21.34945679 C29.6477485 25.28952331 33.56040385 29.24145509 37.47064209 33.19598389 C41.46533537 37.23164526 45.47142158 41.25596182 49.4765625 45.28125 C57.3288966 53.17644199 65.16842802 61.08421654 73 69 C73.598125 68.690625 74.19625 68.38125 74.8125 68.0625 C77 67 77 67 80 66 C78.70700306 68.88437779 77.34058637 70.87219421 75 73 C72.200203 71.72322962 70.15869671 70.40549443 67.99559021 68.22264099 C67.43067871 67.6575885 66.86576721 67.09253601 66.28373718 66.51036072 C65.67633194 65.89262283 65.0689267 65.27488495 64.44311523 64.63842773 C63.79386078 63.98625275 63.14460632 63.33407776 62.47567749 62.66213989 C61.06843995 61.24729853 59.66351754 59.83015155 58.26064873 58.41097832 C56.04208126 56.16689133 53.81733168 53.92910527 51.59083557 51.69288635 C46.86745119 46.94664345 42.15193495 42.19263029 37.4375 37.4375 C31.97161981 31.92447625 26.5025928 26.41465513 21.0250721 20.91319466 C18.83010504 18.7052324 16.64123248 16.49134603 14.45249939 14.27720642 C13.11112527 12.92856945 11.7694708 11.58021125 10.42749023 10.23217773 C9.81806076 9.61241562 9.20863129 8.9926535 8.58073425 8.35411072 C5.24021299 4.99546492 5.24021299 4.99546492 1 3 C0.67 2.01 0.34 1.02 0 0 Z " fill="#ffffff" transform="translate(404,296)"/>
<path d="M0 0 C3.42541583 0.58344447 5.05698381 1.68841054 7.48339844 4.14282227 C8.14378113 4.80343155 8.80416382 5.46404083 9.48455811 6.14466858 C10.53634247 7.21967873 10.53634247 7.21967873 11.609375 8.31640625 C12.33618469 9.04746078 13.06299438 9.77851532 13.81182861 10.53172302 C16.13168401 12.86837157 18.440892 15.21523484 20.75 17.5625 C22.32092443 19.14847036 23.89253094 20.73376543 25.46484375 22.31835938 C29.31784484 26.20443822 33.16215519 30.09895543 37 34 C36.505 34.99 36.505 34.99 36 36 C28.71307616 29.97250906 22.10198445 23.25451533 15.43359375 16.56396484 C13.48031423 14.60525954 11.52166177 12.65203861 9.5625 10.69921875 C8.32259532 9.45865442 7.08300026 8.21778055 5.84375 6.9765625 C5.25638062 6.39121735 4.66901123 5.80587219 4.06384277 5.20278931 C0 1.11499206 0 1.11499206 0 0 Z " fill="#ffffff" transform="translate(393,382)"/>
<path d="M0 0 C0.33 0 0.66 0 1 0 C1.66208877 11.56816208 -0.32502336 22.84179783 -2 34.25 C-2.2898303 36.26681689 -2.57889915 38.28374337 -2.8671875 40.30078125 C-3.56934978 45.2018287 -4.28180923 50.10127677 -5 55 C-5.66 55 -6.32 55 -7 55 C-7.18830029 48.49019013 -6.46602236 42.36454126 -5.46875 35.9375 C-5.31337769 34.90560547 -5.15800537 33.87371094 -4.9979248 32.81054688 C-4.50411914 29.53950278 -4.00218913 26.2697664 -3.5 23 C-3.1622216 20.77221705 -2.82497642 18.54435318 -2.48828125 16.31640625 C-1.66502194 10.87665266 -0.83510238 5.43794736 0 0 Z " fill="#ffffff" transform="translate(302,679)"/>
<path d="M0 0 C0.66 0 1.32 0 2 0 C1.97905273 0.72590332 1.95810547 1.45180664 1.93652344 2.19970703 C1.8530635 5.50799555 1.80124461 8.81606211 1.75 12.125 C1.71648437 13.26710938 1.68296875 14.40921875 1.6484375 15.5859375 C1.54501427 24.10312993 1.54501427 24.10312993 6 31 C8.60024049 32.86310322 8.60024049 32.86310322 11 34 C9.02 34.495 9.02 34.495 7 35 C0.17301993 28.30079763 -1.93781551 22.94768837 -2.25 13.5 C-2.1516201 8.85154978 -1.18640017 4.48077921 0 0 Z " fill="#ffffff" transform="translate(221,626)"/>
<path d="M0 0 C5.84462712 3.70356829 10.48767094 8.14943688 15.36987305 13.05419922 C16.81764553 14.50515685 18.27832647 15.94220788 19.74023438 17.37890625 C21.11598633 18.75369141 21.11598633 18.75369141 22.51953125 20.15625 C23.35589111 20.98962891 24.19225098 21.82300781 25.05395508 22.68164062 C26.92876756 24.91513948 27.63101668 26.15297222 28 29 C24.67862075 27.89287358 23.99947419 27.09352735 21.83203125 24.46484375 C17.99232019 19.94058783 13.89340401 15.74501622 9.6875 11.5625 C8.97271484 10.84384766 8.25792969 10.12519531 7.52148438 9.38476562 C6.83763672 8.70220703 6.15378906 8.01964844 5.44921875 7.31640625 C4.83393311 6.70224854 4.21864746 6.08809082 3.5847168 5.45532227 C2.04624733 3.90829075 2.04624733 3.90829075 0 3 C0 2.01 0 1.02 0 0 Z " fill="#ffffff" transform="translate(649,217)"/>
<path d="M0 0 C0 3 0 3 -1.375 4.6875 C-3 6 -3 6 -5 6 C-5.268125 6.598125 -5.53625 7.19625 -5.8125 7.8125 C-7.02540244 10.04679397 -8.14495964 11.28237004 -10 13 C-10.78375 13.78375 -11.5675 14.5675 -12.375 15.375 C-13.674375 16.674375 -13.674375 16.674375 -15 18 C-15.886875 18.928125 -16.77375 19.85625 -17.6875 20.8125 C-20 23 -20 23 -22 23 C-21.41965256 19.42333658 -20.12341469 17.7481518 -17.578125 15.21484375 C-16.88203125 14.51939453 -16.1859375 13.82394531 -15.46875 13.10742188 C-14.7365625 12.39134766 -14.004375 11.67527344 -13.25 10.9375 C-12.17492187 9.85758789 -12.17492187 9.85758789 -11.078125 8.75585938 C-7.61059431 5.32338644 -4.4001365 2.22605331 0 0 Z " fill="#ffffff" transform="translate(516,422)"/>
<path d="M0 0 C6.63063064 0.78963727 9.86777268 5.08655557 14 10 C18.81338606 16.64166379 23 22.61417164 23 31 C21.03714415 28.05571622 19.5295161 25.09518677 17.9375 21.9375 C14.44560901 15.39840559 10.23670761 10.26607232 5 5 C4.44441406 4.43023437 3.88882813 3.86046875 3.31640625 3.2734375 C2.22582642 2.16741036 1.11618609 1.08018008 0 0 Z " fill="#ffffff" transform="translate(713,155)"/>
<path d="M0 0 C2.52842468 2.34564699 4.34428608 4.88252391 6.25 7.75 C10.92343076 14.49941789 15.98810182 19.72445233 23 24 C21.25 24.7109375 21.25 24.7109375 19 25 C17 23.6015625 17 23.6015625 15 21.625 C12.27825973 18.95641872 10.65817541 17.884915 7 17 C6.29094062 15.01463373 5.63305821 13.01089078 5 11 C3.75203266 9.1617243 2.423925 7.43523713 1.0234375 5.7109375 C0 4 0 4 0 0 Z " fill="#ffffff" transform="translate(291,542)"/>
<path d="M0 0 C0.495 1.98 0.495 1.98 1 4 C-4.94462772 10.35936919 -10.41116392 11.5812699 -19 12 C-23.03490838 11.86969672 -26.99920005 11.53343999 -31 11 C-31.33 10.01 -31.66 9.02 -32 8 C-31.33991943 8.02094727 -30.67983887 8.04189453 -29.99975586 8.06347656 C-26.97916182 8.14715393 -23.95881241 8.19882229 -20.9375 8.25 C-19.37999023 8.30027344 -19.37999023 8.30027344 -17.79101562 8.3515625 C-11.2704154 8.43436377 -7.27536593 7.94203169 -2 4 C-0.5337314 1.91548164 -0.5337314 1.91548164 0 0 Z " fill="#ffffff" transform="translate(275,870)"/>
<path d="M0 0 C9.9 0 19.8 0 30 0 C30 0.66 30 1.32 30 2 C20.76 2 11.52 2 2 2 C2 4.64 2 7.28 2 10 C1.67 10 1.34 10 1 10 C0.67 6.7 0.34 3.4 0 0 Z " fill="#ffffff" transform="translate(760,661)"/>
<path d="M0 0 C0.66 0.33 1.32 0.66 2 1 C2.10901505 3.83439137 2.18777904 6.66450203 2.25 9.5 C2.30027344 10.68722656 2.30027344 10.68722656 2.3515625 11.8984375 C2.44806186 17.78489831 1.28086787 22.07653403 -2 27 C-4.5 29.5625 -4.5 29.5625 -7 31 C-9.3125 30.75 -9.3125 30.75 -11 30 C-9.56770833 29.15364583 -8.13541667 28.30729167 -6.703125 27.4609375 C-3.49686138 24.71061045 -1.32709914 21.87829492 -0.58886719 17.63916016 C-0.3848125 14.96282715 -0.29211163 12.30865939 -0.25 9.625 C-0.22035156 8.69816406 -0.19070313 7.77132812 -0.16015625 6.81640625 C-0.08988139 4.54418565 -0.03697952 2.27296541 0 0 Z " fill="#ffffff" transform="translate(802,630)"/>
<path d="M0 0 C0.99 0.33 1.98 0.66 3 1 C-2.26143998 7.82038516 -8.5511787 13.337963 -15 19 C-15.33 18.34 -15.66 17.68 -16 17 C-10.94647258 11.03651266 -5.58288259 5.46894621 0 0 Z " fill="#ffffff" transform="translate(601,335)"/>
<path d="M0 0 C-2.80189606 2.18496481 -5.66116005 3.99900156 -8.75 5.75 C-15.30001502 9.63363723 -20.73816538 14.51892227 -26 20 C-25.04588039 13.5596926 -19.81264183 9.78867548 -15 6 C-5.07692308 -0.61538462 -5.07692308 -0.61538462 0 0 Z " fill="#ffffff" transform="translate(323,148)"/>
<path d="M0 0 C0.33 0 0.66 0 1 0 C1.67678186 4.16508837 2.33959148 8.33228675 3 12.5 C3.19078125 13.67304687 3.3815625 14.84609375 3.578125 16.0546875 C4.53113107 22.11308323 5.24289989 27.86677782 5 34 C2.73704022 29.80547623 1.90185101 25.64493173 1 21 C0.79375 19.948125 0.5875 18.89625 0.375 17.8125 C-0.20836244 11.88164856 -0.07432616 5.95435108 0 0 Z " fill="#ffffff" transform="translate(742,834)"/>
<path d="M0 0 C2.98824414 2.89769129 5.71938778 5.85538366 8.375 9.0625 C12.78349727 14.15143924 17.67371004 16.69953093 24 19 C22.26953125 20.12109375 22.26953125 20.12109375 20 21 C12.18387954 18.58726041 5.65935563 12.07766629 1.5625 5.1875 C0 2 0 2 0 0 Z " fill="#ffffff" transform="translate(603,499)"/>
<path d="M0 0 C0.33 0 0.66 0 1 0 C0.98952637 0.58491211 0.97905273 1.16982422 0.96826172 1.77246094 C0.92659736 4.43159663 0.90064099 7.09066353 0.875 9.75 C0.85824219 10.67039062 0.84148437 11.59078125 0.82421875 12.5390625 C0.81777344 13.42851563 0.81132812 14.31796875 0.8046875 15.234375 C0.79421387 16.05131836 0.78374023 16.86826172 0.77294922 17.70996094 C1.1792434 21.80785278 3.01235572 24.28395975 6 27 C3.6875 26.8125 3.6875 26.8125 1 26 C-3.34993433 20.40722729 -3.15560928 15.18309355 -2.390625 8.44921875 C-1.91907032 5.49257091 -1.09838761 2.78258195 0 0 Z " fill="#ffffff" transform="translate(236,851)"/>
<path d="M0 0 C0.33 0 0.66 0 1 0 C1.27114829 9.06840378 1.07767554 18.12499091 -1 27 C-1.66 27.33 -2.32 27.66 -3 28 C-2.54362211 18.53616378 -1.81847768 9.32190498 0 0 Z " fill="#ffffff" transform="translate(282,822)"/>
<path d="M0 0 C0.66 0 1.32 0 2 0 C3.46051903 9.42817197 4.29032827 18.43529656 4 28 C3.67 28 3.34 28 3 28 C2.48996146 24.83486722 1.99384043 21.66769716 1.5 18.5 C1.35691406 17.613125 1.21382812 16.72625 1.06640625 15.8125 C0.24134389 10.46923901 -0.15157107 5.40603486 0 0 Z " fill="#ffffff" transform="translate(762,672)"/>
<path d="M0 0 C0.33 0 0.66 0 1 0 C0.48143798 9.102128 -0.46232654 18.01282114 -2 27 C-2.33 27 -2.66 27 -3 27 C-3 19.41 -3 11.82 -3 4 C-2.01 4.495 -2.01 4.495 -1 5 C-0.67 3.35 -0.34 1.7 0 0 Z " fill="#252e55" transform="translate(243,801)"/>
<path d="M0 0 C0 3 0 3 -2.125 5.375 C-5.01789329 8.01633735 -7.96250644 10.52762152 -11 13 C-11.33 12.01 -11.66 11.02 -12 10 C-10.56877218 8.51476358 -9.12979111 7.03699538 -7.6875 5.5625 C-6.88699219 4.73878906 -6.08648438 3.91507812 -5.26171875 3.06640625 C-3 1 -3 1 0 0 Z " fill="#303c68" transform="translate(551,387)"/>
<path d="M0 0 C0.99 0.33 1.98 0.66 3 1 C1.25719203 2.96516623 -0.49364406 4.92200369 -2.25 6.875 C-2.74113281 7.43058594 -3.23226562 7.98617188 -3.73828125 8.55859375 C-6.26831373 11.35849636 -8.42491005 13.65508521 -12 15 C-11.58685438 10.55073948 -8.49538473 8.15899896 -5.4375 5.25 C-4.91736328 4.74339844 -4.39722656 4.23679687 -3.86132812 3.71484375 C-2.58089916 2.46965595 -1.29132446 1.23388498 0 0 Z " fill="#323d66" transform="translate(637,299)"/>
<path d="M0 0 C2.4375 0.8125 2.4375 0.8125 5 2 C5.33 2.99 5.66 3.98 6 5 C6.66 5 7.32 5 8 5 C8 5.66 8 6.32 8 7 C8.99 7.33 9.98 7.66 11 8 C11 8.66 11 9.32 11 10 C11.99 10.33 12.98 10.66 14 11 C15.38576923 12.62332967 16.72641268 14.28724465 18 16 C17.67 16.66 17.34 17.32 17 18 C12.95819633 15.06050642 9.92595608 11.67869666 6.71484375 7.8984375 C4.68151706 5.64741979 2.37770473 3.87334312 0 2 C0 1.34 0 0.68 0 0 Z " fill="#2e3964" transform="translate(439,427)"/>
<path d="M0 0 C0.66 0.33 1.32 0.66 2 1 C1.67 1.66 1.34 2.32 1 3 C-7.61418976 5.18387909 -15.44116028 5.27071258 -24 3 C-24 2.67 -24 2.34 -24 2 C-23.01604248 1.96241577 -23.01604248 1.96241577 -22.01220703 1.92407227 C-19.04959817 1.8082674 -16.08731969 1.68547114 -13.125 1.5625 C-12.09246094 1.52318359 -11.05992187 1.48386719 -9.99609375 1.44335938 C-9.00996094 1.40146484 -8.02382813 1.35957031 -7.0078125 1.31640625 C-6.09660645 1.27974854 -5.18540039 1.24309082 -4.24658203 1.20532227 C-1.96516519 1.13422935 -1.96516519 1.13422935 0 0 Z " fill="#212a4f" transform="translate(781,877)"/>
<path d="M0 0 C4.07376031 1.61010527 6.76507069 4.53822271 9.75 7.625 C10.25660156 8.140625 10.76320313 8.65625 11.28515625 9.1875 C12.52803902 10.45383339 13.76465276 11.7263144 15 13 C14.67 13.99 14.34 14.98 14 16 C11.65861457 13.71643754 9.32833018 11.42186626 7 9.125 C5.99839844 8.14853516 5.99839844 8.14853516 4.9765625 7.15234375 C4.34492188 6.52714844 3.71328125 5.90195312 3.0625 5.2578125 C2.47597656 4.6817627 1.88945312 4.10571289 1.28515625 3.51220703 C0 2 0 2 0 0 Z " fill="#2d3862" transform="translate(365,353)"/>
<path d="M0 0 C5.75917066 2.52507914 10.51796042 8.26028348 13 14 C12.0625 16.14453125 12.0625 16.14453125 11 18 C10.56300781 17.03900391 10.56300781 17.03900391 10.1171875 16.05859375 C7.35150159 10.22282254 4.35318919 5.75813703 0 1 C0 0.67 0 0.34 0 0 Z " fill="#29335d" transform="translate(654,459)"/>
<path d="M0 0 C0.33 0 0.66 0 1 0 C3.29612756 14.59681093 3.29612756 14.59681093 3 22 C2.34 22 1.68 22 1 22 C0.16788724 16.96145894 -0.1078534 12.1874338 -0.0625 7.0625 C-0.05798828 6.37865234 -0.05347656 5.69480469 -0.04882812 4.99023438 C-0.0371956 3.32678396 -0.01926694 1.6633795 0 0 Z " fill="#252e54" transform="translate(726,716)"/>
<path d="M0 0 C0.66 0 1.32 0 2 0 C2.83211276 5.03854106 3.1078534 9.8125662 3.0625 14.9375 C3.05798828 15.62134766 3.05347656 16.30519531 3.04882812 17.00976562 C3.0371956 18.67321604 3.01926694 20.3366205 3 22 C2.67 22 2.34 22 2 22 C-0.29612756 7.40318907 -0.29612756 7.40318907 0 0 Z " fill="#273054" transform="translate(785,841)"/>
<path d="M0 0 C0.66 0 1.32 0 2 0 C2.22731216 6.93302093 1.42002108 13.2168636 0 20 C-0.33 20 -0.66 20 -1 20 C-1.18451025 6.3667426 -1.18451025 6.3667426 0 0 Z " fill="#232c52" transform="translate(238,829)"/>
<path d="M0 0 C0.33 0 0.66 0 1 0 C1.18451025 13.6332574 1.18451025 13.6332574 0 20 C-0.66 20 -1.32 20 -2 20 C-1.85879984 17.41633755 -1.71221667 14.83317115 -1.5625 12.25 C-1.52318359 11.52039063 -1.48386719 10.79078125 -1.44335938 10.0390625 C-1.23852902 6.5727027 -0.9147998 3.34666974 0 0 Z " fill="#273058" transform="translate(285,801)"/>
<path d="M0 0 C0.66 0 1.32 0 2 0 C0.57369692 3.33049122 -1.15014396 5.31738937 -3.875 7.6875 C-4.55304687 8.28949219 -5.23109375 8.89148438 -5.9296875 9.51171875 C-8.01065834 11.00766194 -9.49630826 11.5789756 -12 12 C-12 11.34 -12 10.68 -12 10 C-10.390625 8.6328125 -10.390625 8.6328125 -8.25 7.125 C-5.82565509 5.37741569 -3.74667413 3.74667413 -1.625 1.625 C-1.08875 1.08875 -0.5525 0.5525 0 0 Z " fill="#29345c" transform="translate(661,506)"/>
<path d="M0 0 C2 2 2 2 2.3125 5.125 C1.96463144 9.4385702 1.12155843 13.20214848 -1 17 C-1.99 17.66 -2.98 18.32 -4 19 C-3.41181172 16.54921548 -2.74194621 14.16132519 -2 11.75 C-0.94374067 7.78902751 -0.42840807 4.06987666 0 0 Z " fill="#263059" transform="translate(677,247)"/>
<path d="M0 0 C0.33 0 0.66 0 1 0 C3.29612756 13.6332574 3.29612756 13.6332574 3 20 C2.67 20 2.34 20 2 20 C1.731875 19.05125 1.46375 18.1025 1.1875 17.125 C0.25013412 13.74732727 0.25013412 13.74732727 -3 12 C-2.34 11.67 -1.68 11.34 -1 11 C-0.5316735 8.41394668 -0.5316735 8.41394668 -0.375 5.4375 C-0.30023437 4.42558594 -0.22546875 3.41367187 -0.1484375 2.37109375 C-0.09945312 1.58863281 -0.05046875 0.80617188 0 0 Z " fill="#232c52" transform="translate(723,695)"/>
<path d="M0 0 C0 3.86474861 -1.34492416 6.20494458 -3 9.6875 C-3.556875 10.86699219 -4.11375 12.04648438 -4.6875 13.26171875 C-5.120625 14.16535156 -5.55375 15.06898438 -6 16 C-6.33 16 -6.66 16 -7 16 C-6.56952295 9.86570207 -5.4459553 6.11672151 -2 1 C-1.34 0.67 -0.68 0.34 0 0 Z " fill="#263055" transform="translate(295,169)"/>
<path d="M0 0 C0.33 0 0.66 0 1 0 C1.26404456 6.86515862 0.25841946 13.25846717 -1 20 C-1.33 20 -1.66 20 -2 20 C-2.3690205 6.3667426 -2.3690205 6.3667426 0 0 Z " fill="#1e274d" transform="translate(261,673)"/>
<path d="M0 0 C0.66 0 1.32 0 2 0 C1.64989059 8.19256018 1.64989059 8.19256018 -1.0625 11.5625 C-1.701875 12.036875 -2.34125 12.51125 -3 13 C-3 10.23860124 -2.6601653 8.05358755 -2.0625 5.375 C-1.88847656 4.57835937 -1.71445312 3.78171875 -1.53515625 2.9609375 C-1 1 -1 1 0 0 Z " fill="#2d375e" transform="translate(788,864)"/>
<path d="M0 0 C0.33 0 0.66 0 1 0 C2.86132673 4.70461323 3.2509496 8.8757696 3.125 13.875 C3.11597656 14.56335938 3.10695313 15.25171875 3.09765625 15.9609375 C3.07432513 17.64077838 3.03846326 19.32043746 3 21 C2.67 21 2.34 21 2 21 C1.66034526 18.81347261 1.32857523 16.62571975 1 14.4375 C0.814375 13.21933594 0.62875 12.00117187 0.4375 10.74609375 C0.01444923 7.12372152 -0.07501425 3.64287954 0 0 Z " fill="#1f2a50" transform="translate(773,754)"/>
<path d="M0 0 C-2.68841859 2.25245881 -4.64641875 3.88213958 -8 5 C-9.21869929 7.50447516 -9.21869929 7.50447516 -10 10 C-10.66 9.67 -11.32 9.34 -12 9 C-10.13346484 2.89133947 -6.64007326 -0.75886552 0 0 Z " fill="#2c365c" transform="translate(234,617)"/>
<path d="M0 0 C0.66 0 1.32 0 2 0 C0.5243763 3.85674376 -1.47006893 5.21823735 -5 7.25 C-5.886875 7.77078125 -6.77375 8.2915625 -7.6875 8.828125 C-10 10 -10 10 -12 10 C-12 9.34 -12 8.68 -12 8 C-10.23596271 6.74163402 -8.41220501 5.5661735 -6.5625 4.4375 C-3.09563564 2.46466077 -3.09563564 2.46466077 0 0 Z " fill="#29325a" transform="translate(716,561)"/>
<path d="M0 0 C4.41510774 0.48713098 6.30446645 1.85053197 9.3125 5.0625 C10.00988281 5.79597656 10.70726562 6.52945313 11.42578125 7.28515625 C11.94527344 7.85105469 12.46476563 8.41695312 13 9 C12.01 9.33 11.02 9.66 10 10 C6.66666667 6.66666667 3.33333333 3.33333333 0 0 Z " fill="#2b355d" transform="translate(713,155)"/>
<path d="M0 0 C0.33 0 0.66 0 1 0 C1.3690205 12.66970387 1.3690205 12.66970387 -1 18 C-1.33 18 -1.66 18 -2 18 C-1.85860519 15.74971671 -1.71171997 13.49977794 -1.5625 11.25 C-1.48128906 9.99703125 -1.40007812 8.7440625 -1.31640625 7.453125 C-1.07484478 4.81682447 -0.75716066 2.51962706 0 0 Z " fill="#212a4f" transform="translate(278,851)"/>
<path d="M0 0 C0.33 0 0.66 0 1 0 C2.80679587 4.62369023 3.21839082 8.42528653 3.125 13.375 C3.10695313 14.62023437 3.08890625 15.86546875 3.0703125 17.1484375 C3.03550781 18.55996094 3.03550781 18.55996094 3 20 C2.67 20 2.34 20 2 20 C-0.29612756 6.3667426 -0.29612756 6.3667426 0 0 Z " fill="#1e274b" transform="translate(782,820)"/>
<path d="M0 0 C0.33 0 0.66 0 1 0 C0.45118943 6.35219042 -0.16511613 12.67873638 -1 19 C-1.33 19 -1.66 19 -2 19 C-2.05428973 16.77110504 -2.09292338 14.54182529 -2.125 12.3125 C-2.15980469 10.45044922 -2.15980469 10.45044922 -2.1953125 8.55078125 C-2.01032021 5.18762143 -1.45767895 3.0014413 0 0 Z " fill="#1f294d" transform="translate(603,474)"/>
<path d="M0 0 C-0.33 0.66 -0.66 1.32 -1 2 C-3.3140622 2.73075648 -5.64828869 3.40138258 -8 4 C-8 3.34 -8 2.68 -8 2 C-10.64 2 -13.28 2 -16 2 C-16 1.67 -16 1.34 -16 1 C-14.27327966 0.63409254 -12.54346345 0.28277805 -10.8125 -0.0625 C-9.36810547 -0.35833984 -9.36810547 -0.35833984 -7.89453125 -0.66015625 C-4.96389138 -1.00423947 -2.83692932 -0.74164697 0 0 Z " fill="#3e4c7c" transform="translate(488,452)"/>
<path d="M0 0 C5.54198473 0.75572519 5.54198473 0.75572519 7.875 2 C11.14524349 3.53893811 14.41464918 3.64146492 18 4 C18 4.33 18 4.66 18 5 C10.75460274 5.53449652 6.27087737 4.71607548 0 1 C0 0.67 0 0.34 0 0 Z " fill="#1f2a51" transform="translate(462,450)"/>
<path d="M0 0 C0.66 0 1.32 0 2 0 C1.67 4.29 1.34 8.58 1 13 C0.34 13 -0.32 13 -1 13 C-1.07654536 8.48382401 -1.10228696 4.40914783 0 0 Z " fill="#2c365d" transform="translate(296,721)"/>
<path d="M0 0 C2.30874711 2.16614803 4.05290181 4.39206608 5.75 7.0625 C6.19859375 7.75472656 6.6471875 8.44695313 7.109375 9.16015625 C7.40328125 9.76730469 7.6971875 10.37445312 8 11 C7.67 11.66 7.34 12.32 7 13 C5.82157218 11.59310148 4.65762602 10.17406375 3.5 8.75 C2.8503125 7.96109375 2.200625 7.1721875 1.53125 6.359375 C0 4 0 4 0 0 Z " fill="#242d53" transform="translate(291,542)"/>
<path d="M0 0 C0.67578125 1.734375 0.67578125 1.734375 1 4 C-0.14453125 6.140625 -0.14453125 6.140625 -1.8125 8.25 C-2.35519531 8.95640625 -2.89789062 9.6628125 -3.45703125 10.390625 C-3.96621094 10.92171875 -4.47539063 11.4528125 -5 12 C-5.66 12 -6.32 12 -7 12 C-5.61735163 9.13132769 -4.07851447 6.43975968 -2.375 3.75 C-1.92898438 3.04359375 -1.48296875 2.3371875 -1.0234375 1.609375 C-0.68570313 1.07828125 -0.34796875 0.5471875 0 0 Z " fill="#273158" transform="translate(730,544)"/>
<path d="M0 0 C0.556875 0.721875 1.11375 1.44375 1.6875 2.1875 C3.97909334 4.97457299 6.41459857 7.48641528 9 10 C5.89903219 9.65544802 4.20062862 9.15182706 1.6875 7.25 C-0.30929204 4.58761061 -0.36116409 3.25047681 0 0 Z " fill="#232c4f" transform="translate(747,869)"/>
<path d="M0 0 C0.66 1.32 1.32 2.64 2 4 C2.66 2.68 3.32 1.36 4 0 C4.08131463 1.43655854 4.13933559 2.8744483 4.1875 4.3125 C4.22230469 5.11300781 4.25710938 5.91351562 4.29296875 6.73828125 C4 9 4 9 1 12 C0.67 8.04 0.34 4.08 0 0 Z " fill="#404c7b" transform="translate(738,814)"/>
<path d="M0 0 C0.66 0.33 1.32 0.66 2 1 C-1.96 4.465 -1.96 4.465 -6 8 C-6.33 7.01 -6.66 6.02 -7 5 C-4.63707344 2.47411298 -3.33537489 1.11179163 0 0 Z " fill="#2e3964" transform="translate(562,376)"/>
<path d="M0 0 C2.49310546 3.2410371 4.9059805 6.4850387 7 10 C6.67 10.99 6.34 11.98 6 13 C0 5.8 0 5.8 0 0 Z " fill="#262f58" transform="translate(356,339)"/>
<path d="M0 0 C3.16130459 4.21507278 3.3367697 5.06071112 3 10 C2.01 9.67 1.02 9.34 0 9 C-0.33 9.99 -0.66 10.98 -1 12 C-0.67 8.04 -0.34 4.08 0 0 Z " fill="#3c4978" transform="translate(261,664)"/>
<path d="M0 0 C0.66 0 1.32 0 2 0 C0.80100302 3.0831351 -0.47700477 6.06279492 -2 9 C-3.32 8.67 -4.64 8.34 -6 8 C-5.04956626 6.66102417 -4.08940853 5.32894573 -3.125 4 C-2.59132813 3.2575 -2.05765625 2.515 -1.5078125 1.75 C-1.01023437 1.1725 -0.51265625 0.595 0 0 Z " fill="#2a355e" transform="translate(610,463)"/>
<path d="M0 0 C0 3 0 3 -1.375 4.6875 C-3 6 -3 6 -5 6 C-5.66 7.32 -6.32 8.64 -7 10 C-7.66 9.67 -8.32 9.34 -9 9 C-6.46636932 4.77728219 -4.43379675 2.21689838 0 0 Z " fill="#26325c" transform="translate(516,422)"/>
<path d="M0 0 C0.99 0.33 1.98 0.66 3 1 C-2.14285714 6.57142857 -2.14285714 6.57142857 -6 7 C-4.75686537 3.27059611 -3.23014784 2.15343189 0 0 Z " fill="#2b365e" transform="translate(490,446)"/>
<path d="M0 0 C3.96 0 7.92 0 12 0 C12 0.66 12 1.32 12 2 C12.66 2.33 13.32 2.66 14 3 C9.30976546 2.43393721 4.65499974 1.81462495 0 1 C0 0.67 0 0.34 0 0 Z " fill="#26325b" transform="translate(683,144)"/>
<path d="M0 0 C3.375 4.5 3.375 4.5 3 9 C2.01 9 1.02 9 0 9 C-0.33 9.99 -0.66 10.98 -1 12 C-0.67 8.04 -0.34 4.08 0 0 Z " fill="#3e4a79" transform="translate(253,721)"/>
<path d="M0 0 C1.53224072 2.43355879 2.03344238 3.65721564 1.75 6.5625 C1 9 1 9 -1 12 C-1.14285714 3.42857143 -1.14285714 3.42857143 0 0 Z " fill="#1e2951" transform="translate(258,694)"/>
<path d="M0 0 C0.33 0.66 0.66 1.32 1 2 C3.01669827 3.13350534 3.01669827 3.13350534 5 4 C4.67 4.99 4.34 5.98 4 7 C1.36 5.35 -1.28 3.7 -4 2 C-2.68 1.34 -1.36 0.68 0 0 Z " fill="#293257" transform="translate(793,616)"/>
<path d="M0 0 C0.99 0.33 1.98 0.66 3 1 C1.35 2.98 -0.3 4.96 -2 7 C-2.66 6.67 -3.32 6.34 -4 6 C-1.125 1.125 -1.125 1.125 0 0 Z " fill="#2e3a66" transform="translate(619,317)"/>
<path d="M0 0 C1.08667969 0.02707031 2.17335938 0.05414063 3.29296875 0.08203125 C4.54013672 0.13423828 4.54013672 0.13423828 5.8125 0.1875 C5.8125 0.5175 5.8125 0.8475 5.8125 1.1875 C2.5125 1.1875 -0.7875 1.1875 -4.1875 1.1875 C-4.1875 1.8475 -4.1875 2.5075 -4.1875 3.1875 C-5.8375 3.1875 -7.4875 3.1875 -9.1875 3.1875 C-6.54246503 -0.34849411 -4.24021315 -0.13678107 0 0 Z " fill="#1f274e" transform="translate(397.1875,294.8125)"/>
<path d="M0 0 C0.33 0.99 0.66 1.98 1 3 C-0.65 4.65 -2.3 6.3 -4 8 C-4.99 7.67 -5.98 7.34 -7 7 C-4.69 4.69 -2.38 2.38 0 0 Z " fill="#29345c" transform="translate(574,270)"/>
<path d="M0 0 C4.41889613 1.35021826 6.34345343 3.26115668 9 7 C8.67 7.66 8.34 8.32 8 9 C4.36905358 6.35039045 2.10148204 3.98175544 0 0 Z " fill="#252f58" transform="translate(448,436)"/>
<path d="M0 0 C-1.29299694 2.88437779 -2.65941363 4.87219421 -5 7 C-5.99 6.67 -6.98 6.34 -8 6 C-7.0479279 4.99403703 -6.08812654 3.99538437 -5.125 3 C-4.59132813 2.443125 -4.05765625 1.88625 -3.5078125 1.3125 C-2 0 -2 0 0 0 Z " fill="#2b345c" transform="translate(520,326)"/>
<path d="M0 0 C3.3 0.99 6.6 1.98 10 3 C8.02 3.99 8.02 3.99 6 5 C2.75 3.625 2.75 3.625 0 2 C0 1.34 0 0.68 0 0 Z " fill="#2f3a64" transform="translate(617,515)"/>
<path d="M0 0 C0.66 0.33 1.32 0.66 2 1 C1.67 2.32 1.34 3.64 1 5 C0.38125 5.144375 -0.2375 5.28875 -0.875 5.4375 C-3.03258322 5.93152225 -3.03258322 5.93152225 -5 7 C-3.70700306 4.11562221 -2.34058637 2.12780579 0 0 Z " fill="#3a4779" transform="translate(528,314)"/>
<path d="M0 0 C0.99 0.33 1.98 0.66 3 1 C2.25 2.9375 2.25 2.9375 1 5 C-1.125 5.75 -1.125 5.75 -3 6 C-2.01 4.02 -1.02 2.04 0 0 Z " fill="#2f3b67" transform="translate(375,307)"/>
<path d="M0 0 C0.99 0.33 1.98 0.66 3 1 C-0.465 3.97 -0.465 3.97 -4 7 C-4 5.68 -4 4.36 -4 3 C-2.1875 1.1875 -2.1875 1.1875 0 0 Z " fill="#2f3964" transform="translate(652,284)"/>
<path d="M0 0 C0.66 0 1.32 0 2 0 C3.125 3.3125 3.125 3.3125 4 7 C3.01 8.485 3.01 8.485 2 10 C1.34 6.7 0.68 3.4 0 0 Z " fill="#2a335a" transform="translate(799,623)"/>
<path d="M0 0 C3.82097239 0.53069061 6.06171403 1.49701566 9 4 C2.25 3.125 2.25 3.125 0 2 C0 1.34 0 0.68 0 0 Z " fill="#242d54" transform="translate(317,569)"/>
<path d="M0 0 C0 0.99 0 1.98 0 3 C-3 5.1875 -3 5.1875 -6 7 C-5.8125 5.1875 -5.8125 5.1875 -5 3 C-2.4375 1.25 -2.4375 1.25 0 0 Z " fill="#2c365e" transform="translate(535,403)"/>
<path d="M0 0 C0.33 0.99 0.66 1.98 1 3 C-0.32 4.32 -1.64 5.64 -3 7 C-3.99 6.67 -4.98 6.34 -6 6 C-4.02 4.02 -2.04 2.04 0 0 Z " fill="#242f55" transform="translate(494,350)"/>
<path d="M0 0 C0.33 0.99 0.66 1.98 1 3 C-0.32 4.32 -1.64 5.64 -3 7 C-3.99 6.67 -4.98 6.34 -6 6 C-4.02 4.02 -2.04 2.04 0 0 Z " fill="#283158" transform="translate(526,318)"/>
<path d="M0 0 C0.33 0 0.66 0 1 0 C1.24954005 1.43410368 1.47392642 2.87260072 1.6875 4.3125 C1.87892578 5.51326172 1.87892578 5.51326172 2.07421875 6.73828125 C2 9 2 9 -1 12 C-0.67 8.04 -0.34 4.08 0 0 Z " fill="#3e4a75" transform="translate(236,843)"/>
<path d="M0 0 C2.46800047 1.15173355 4.04783565 2.04783565 6 4 C5.67 4.99 5.34 5.98 5 7 C3.29115995 5.37660195 1.62553283 3.70680947 0 2 C0 1.34 0 0.68 0 0 Z " fill="#2b355f" transform="translate(382,370)"/>
<path d="M0 0 C0.66 0.33 1.32 0.66 2 1 C-1.465 3.97 -1.465 3.97 -5 7 C-5.33 6.01 -5.66 5.02 -6 4 C-4.02 2.68 -2.04 1.36 0 0 Z " fill="#27345e" transform="translate(631,307)"/>
<path d="M0 0 C0.66 0 1.32 0 2 0 C2 1.98 2 3.96 2 6 C1.34 5.67 0.68 5.34 0 5 C0 3.35 0 1.7 0 0 Z " fill="#445182" transform="translate(664,481)"/>
<path d="M0 0 C0.33 0 0.66 0 1 0 C1 2.31 1 4.62 1 7 C0.67 7 0.34 7 0 7 C0 4.69 0 2.38 0 0 Z " fill="#424d7a" transform="translate(736,813)"/>
<path d="M0 0 C0.33 0 0.66 0 1 0 C1 1.98 1 3.96 1 6 C0.67 6 0.34 6 0 6 C0 4.02 0 2.04 0 0 Z " fill="#434e7b" transform="translate(738,828)"/>
<path d="M0 0 C0.33 0 0.66 0 1 0 C1 1.98 1 3.96 1 6 C0.67 6 0.34 6 0 6 C0 4.02 0 2.04 0 0 Z " fill="#45507e" transform="translate(716,666)"/>
<path d="M0 0 C0.66 1.32 1.32 2.64 2 4 C1.01 3.01 0.02 2.02 -1 1 C-0.67 0.67 -0.34 0.34 0 0 Z " fill="#424d7b" transform="translate(289,544)"/>
<path d="M0 0 C0.33 0 0.66 0 1 0 C1 1.65 1 3.3 1 5 C0.67 5 0.34 5 0 5 C0 3.35 0 1.7 0 0 Z " fill="#424d7d" transform="translate(287,810)"/>
<path d="M0 0 C0.33 0 0.66 0 1 0 C1 1.65 1 3.3 1 5 C0.67 5 0.34 5 0 5 C0 3.35 0 1.7 0 0 Z " fill="#46507e" transform="translate(728,754)"/>
<path d="M0 0 C0.33 0 0.66 0 1 0 C1 1.65 1 3.3 1 5 C0.67 5 0.34 5 0 5 C0 3.35 0 1.7 0 0 Z " fill="#444f7e" transform="translate(722,709)"/>
<path d="M0 0 C1 4 1 4 1 4 Z " fill="#424d7a" transform="translate(737,821)"/>
<path d="M0 0 C1 4 1 4 1 4 Z " fill="#444d7c" transform="translate(248,744)"/>
<path d="M0 0 C1 4 1 4 1 4 Z " fill="#44507f" transform="translate(724,724)"/>
<path d="M0 0 C1.485 0.99 1.485 0.99 3 2 C2.01 2 1.02 2 0 2 C0 1.34 0 0.68 0 0 Z " fill="#445180" transform="translate(497,432)"/>
<path d="M0 0 C0.33 0.66 0.66 1.32 1 2 C0.01 1.67 -0.98 1.34 -2 1 C-1.34 0.67 -0.68 0.34 0 0 Z " fill="#435181" transform="translate(507,424)"/>
<path d="M0 0 C0.99 0.33 1.98 0.66 3 1 C2.01 1 1.02 1 0 1 C0 0.67 0 0.34 0 0 Z " fill="#434e7e" transform="translate(649,221)"/>
<path d="M0 0 C1 4 1 4 1 4 Z " fill="#424c78" transform="translate(282,204)"/>
<path d="" fill="#3d4874" transform="translate(0,0)"/>
<path d="" fill="#3c4770" transform="translate(0,0)"/>
<path d="" fill="#3f4973" transform="translate(0,0)"/>
<path d="" fill="#3f4a75" transform="translate(0,0)"/>
<path d="" fill="#434e7a" transform="translate(0,0)"/>
<path d="M0 0 C0.33 0.66 0.66 1.32 1 2 C0.34 1.67 -0.32 1.34 -1 1 C-0.67 0.67 -0.34 0.34 0 0 Z " fill="#434f7c" transform="translate(737,826)"/>
<path d="" fill="#444b79" transform="translate(0,0)"/>
<path d="" fill="#414b79" transform="translate(0,0)"/>
<path d="M0 0 C0.66 0.66 1.32 1.32 2 2 C1.34 2 0.68 2 0 2 C0 1.34 0 0.68 0 0 Z " fill="#414b74" transform="translate(216,634)"/>
<path d="M0 0 C0.66 0.66 1.32 1.32 2 2 C1.34 2 0.68 2 0 2 C0 1.34 0 0.68 0 0 Z " fill="#454f7e" transform="translate(312,569)"/>
<path d="M0 0 C0.66 0.66 1.32 1.32 2 2 C1.34 2 0.68 2 0 2 C0 1.34 0 0.68 0 0 Z " fill="#47507f" transform="translate(304,563)"/>
<path d="" fill="#414b78" transform="translate(0,0)"/>
<path d="" fill="#404b78" transform="translate(0,0)"/>
<path d="M0 0 C0.99 0.495 0.99 0.495 2 1 C1.01 1.495 1.01 1.495 0 2 C0 1.34 0 0.68 0 0 Z " fill="#445181" transform="translate(576,352)"/>
<path d="M0 0 C0.33 0.66 0.66 1.32 1 2 C0.34 1.67 -0.32 1.34 -1 1 C-0.67 0.67 -0.34 0.34 0 0 Z " fill="#445180" transform="translate(673,245)"/>
<path d="" fill="#424c78" transform="translate(0,0)"/>
<path d="" fill="#414c78" transform="translate(0,0)"/>
<path d="M0 0 C0.66 0 1.32 0 2 0 C1.67 0.66 1.34 1.32 1 2 C0.67 1.34 0.34 0.68 0 0 Z " fill="#3f4975" transform="translate(320,144)"/>
<path d="" fill="#3c456e" transform="translate(0,0)"/>
<path d="" fill="#414a75" transform="translate(0,0)"/>
<path d="" fill="#404a73" transform="translate(0,0)"/>
<path d="" fill="#414c7b" transform="translate(0,0)"/>
<path d="" fill="#434d7b" transform="translate(0,0)"/>
<path d="" fill="#424d7a" transform="translate(0,0)"/>
<path d="" fill="#404a7a" transform="translate(0,0)"/>
<path d="" fill="#424d7b" transform="translate(0,0)"/>
<path d="" fill="#424c7a" transform="translate(0,0)"/>
<path d="" fill="#465080" transform="translate(0,0)"/>
<path d="" fill="#424e7d" transform="translate(0,0)"/>
<path d="" fill="#444e7d" transform="translate(0,0)"/>
<path d="" fill="#434e7c" transform="translate(0,0)"/>
<path d="" fill="#46507d" transform="translate(0,0)"/>
<path d="M0 0 C2 1 2 1 2 1 Z " fill="#424e77" transform="translate(791,663)"/>
<path d="" fill="#3f4871" transform="translate(0,0)"/>
<path d="M0 0 C2 1 2 1 2 1 Z " fill="#495382" transform="translate(324,575)"/>
<path d="M0 0 C2 1 2 1 2 1 Z " fill="#495383" transform="translate(320,574)"/>
<path d="M0 0 C2 1 2 1 2 1 Z " fill="#475180" transform="translate(308,567)"/>
<path d="" fill="#46507f" transform="translate(0,0)"/>
<path d="" fill="#414c7a" transform="translate(0,0)"/>
<path d="" fill="#414c7a" transform="translate(0,0)"/>
<path d="M0 0 C2 1 2 1 2 1 Z " fill="#444f80" transform="translate(648,514)"/>
<path d="" fill="#434f7f" transform="translate(0,0)"/>
<path d="M0 0 C2 1 2 1 2 1 Z " fill="#444f80" transform="translate(617,461)"/>
<path d="" fill="#414b79" transform="translate(0,0)"/>
<path d="M0 0 C2 1 2 1 2 1 Z " fill="#434f81" transform="translate(468,450)"/>
<path d="M0 0 C2 1 2 1 2 1 Z " fill="#434d7e" transform="translate(485,448)"/>
<path d="M0 0 C2 1 2 1 2 1 Z " fill="#445182" transform="translate(520,409)"/>
<path d="M0 0 C2 1 2 1 2 1 Z " fill="#434f80" transform="translate(405,385)"/>
<path d="M0 0 C2 1 2 1 2 1 Z " fill="#454f81" transform="translate(484,367)"/>
<path d="" fill="#414d7b" transform="translate(0,0)"/>
<path d="" fill="#435082" transform="translate(0,0)"/>
<path d="M0 0 C2 1 2 1 2 1 Z " fill="#444e80" transform="translate(401,301)"/>
<path d="" fill="#444f81" transform="translate(0,0)"/>
<path d="M0 0 C2 1 2 1 2 1 Z " fill="#435080" transform="translate(633,297)"/>
<path d="" fill="#435183" transform="translate(0,0)"/>
<path d="" fill="#444e7f" transform="translate(0,0)"/>
<path d="" fill="#414c79" transform="translate(0,0)"/>
<path d="" fill="#404a78" transform="translate(0,0)"/>
<path d="M0 0 C2 1 2 1 2 1 Z " fill="#444f7f" transform="translate(657,229)"/>
<path d="" fill="#445081" transform="translate(0,0)"/>
<path d="" fill="#414b77" transform="translate(0,0)"/>
<path d="M0 0 C2 1 2 1 2 1 Z " fill="#3d4874" transform="translate(700,145)"/>
<path d="" fill="#3e466d" transform="translate(0,0)"/>
<path d="" fill="#3e456c" transform="translate(0,0)"/>
<path d="" fill="#39446b" transform="translate(0,0)"/>
<path d="" fill="#3d4870" transform="translate(0,0)"/>
<path d="" fill="#3b4267" transform="translate(0,0)"/>
<path d="" fill="#39446b" transform="translate(0,0)"/>
<path d="" fill="#3b476e" transform="translate(0,0)"/>
<path d="" fill="#39426a" transform="translate(0,0)"/>
<path d="" fill="#3c446c" transform="translate(0,0)"/>
<path d="" fill="#3a446b" transform="translate(0,0)"/>
<path d="" fill="#3c456d" transform="translate(0,0)"/>
<path d="" fill="#3d476e" transform="translate(0,0)"/>
<path d="" fill="#3e4772" transform="translate(0,0)"/>
<path d="" fill="#3f4673" transform="translate(0,0)"/>
<path d="" fill="#3d4773" transform="translate(0,0)"/>
<path d="" fill="#404974" transform="translate(0,0)"/>
<path d="" fill="#3c4673" transform="translate(0,0)"/>
<path d="" fill="#414a74" transform="translate(0,0)"/>
<path d="" fill="#404972" transform="translate(0,0)"/>
<path d="" fill="#434d78" transform="translate(0,0)"/>
<path d="" fill="#414c7a" transform="translate(0,0)"/>
<path d="" fill="#414c78" transform="translate(0,0)"/>
<path d="" fill="#3f4974" transform="translate(0,0)"/>
<path d="" fill="#414d7c" transform="translate(0,0)"/>
<path d="" fill="#434d7a" transform="translate(0,0)"/>
<path d="" fill="#414a77" transform="translate(0,0)"/>
<path d="" fill="#404a76" transform="translate(0,0)"/>
<path d="" fill="#414a77" transform="translate(0,0)"/>
<path d="" fill="#424d7b" transform="translate(0,0)"/>
<path d="" fill="#414b79" transform="translate(0,0)"/>
<path d="" fill="#424c78" transform="translate(0,0)"/>
<path d="" fill="#414c77" transform="translate(0,0)"/>
<path d="" fill="#434b79" transform="translate(0,0)"/>
<path d="" fill="#444d7b" transform="translate(0,0)"/>
<path d="" fill="#414d79" transform="translate(0,0)"/>
<path d="" fill="#424d78" transform="translate(0,0)"/>
<path d="" fill="#414c77" transform="translate(0,0)"/>
<path d="" fill="#475382" transform="translate(0,0)"/>
<path d="" fill="#485282" transform="translate(0,0)"/>
<path d="" fill="#485382" transform="translate(0,0)"/>
<path d="" fill="#475282" transform="translate(0,0)"/>
<path d="" fill="#454f81" transform="translate(0,0)"/>
<path d="" fill="#3f4b79" transform="translate(0,0)"/>
<path d="" fill="#3e4a78" transform="translate(0,0)"/>
<path d="" fill="#414d7b" transform="translate(0,0)"/>
<path d="" fill="#414c79" transform="translate(0,0)"/>
<path d="" fill="#454f7d" transform="translate(0,0)"/>
<path d="" fill="#434c7b" transform="translate(0,0)"/>
<path d="" fill="#424c79" transform="translate(0,0)"/>
<path d="" fill="#424b7a" transform="translate(0,0)"/>
<path d="" fill="#455180" transform="translate(0,0)"/>
<path d="" fill="#485280" transform="translate(0,0)"/>
<path d="" fill="#43507e" transform="translate(0,0)"/>
<path d="" fill="#424e7b" transform="translate(0,0)"/>
<path d="" fill="#424c7c" transform="translate(0,0)"/>
<path d="" fill="#444f7f" transform="translate(0,0)"/>
<path d="" fill="#454e7b" transform="translate(0,0)"/>
<path d="" fill="#455181" transform="translate(0,0)"/>
<path d="" fill="#444b78" transform="translate(0,0)"/>
<path d="" fill="#445080" transform="translate(0,0)"/>
<path d="" fill="#434e7e" transform="translate(0,0)"/>
<path d="" fill="#47507f" transform="translate(0,0)"/>
<path d="" fill="#424f7f" transform="translate(0,0)"/>
<path d="" fill="#44507d" transform="translate(0,0)"/>
<path d="" fill="#414c79" transform="translate(0,0)"/>
<path d="" fill="#3d4978" transform="translate(0,0)"/>
<path d="" fill="#414c7a" transform="translate(0,0)"/>
<path d="" fill="#444f7e" transform="translate(0,0)"/>
<path d="" fill="#454f7e" transform="translate(0,0)"/>
<path d="" fill="#444f7c" transform="translate(0,0)"/>
<path d="" fill="#454d7d" transform="translate(0,0)"/>
<path d="" fill="#454e7e" transform="translate(0,0)"/>
<path d="" fill="#46507f" transform="translate(0,0)"/>
<path d="" fill="#424f7c" transform="translate(0,0)"/>
<path d="" fill="#444e7c" transform="translate(0,0)"/>
<path d="" fill="#455081" transform="translate(0,0)"/>
<path d="" fill="#444e7c" transform="translate(0,0)"/>
<path d="" fill="#414b78" transform="translate(0,0)"/>
<path d="" fill="#404875" transform="translate(0,0)"/>
<path d="" fill="#424b77" transform="translate(0,0)"/>
<path d="" fill="#3d4770" transform="translate(0,0)"/>
<path d="" fill="#3f4973" transform="translate(0,0)"/>
<path d="" fill="#3d4871" transform="translate(0,0)"/>
<path d="" fill="#3e4772" transform="translate(0,0)"/>
<path d="" fill="#414a76" transform="translate(0,0)"/>
<path d="" fill="#3f4871" transform="translate(0,0)"/>
<path d="" fill="#414a73" transform="translate(0,0)"/>
<path d="" fill="#424b75" transform="translate(0,0)"/>
<path d="" fill="#424b77" transform="translate(0,0)"/>
<path d="" fill="#495384" transform="translate(0,0)"/>
<path d="" fill="#485381" transform="translate(0,0)"/>
<path d="" fill="#495384" transform="translate(0,0)"/>
<path d="" fill="#485182" transform="translate(0,0)"/>
<path d="" fill="#444f7e" transform="translate(0,0)"/>
<path d="" fill="#475080" transform="translate(0,0)"/>
<path d="" fill="#434f7f" transform="translate(0,0)"/>
<path d="" fill="#434f7e" transform="translate(0,0)"/>
<path d="" fill="#444f7d" transform="translate(0,0)"/>
<path d="" fill="#45507e" transform="translate(0,0)"/>
<path d="" fill="#3e4776" transform="translate(0,0)"/>
<path d="" fill="#454f7f" transform="translate(0,0)"/>
<path d="" fill="#3f4c76" transform="translate(0,0)"/>
<path d="" fill="#424e7d" transform="translate(0,0)"/>
<path d="" fill="#444e79" transform="translate(0,0)"/>
<path d="" fill="#454e7b" transform="translate(0,0)"/>
<path d="" fill="#404b7a" transform="translate(0,0)"/>
<path d="" fill="#3f4b77" transform="translate(0,0)"/>
<path d="" fill="#414d79" transform="translate(0,0)"/>
<path d="" fill="#414c79" transform="translate(0,0)"/>
<path d="" fill="#424b7b" transform="translate(0,0)"/>
<path d="" fill="#414e7a" transform="translate(0,0)"/>
<path d="" fill="#424c7e" transform="translate(0,0)"/>
<path d="" fill="#424e79" transform="translate(0,0)"/>
<path d="" fill="#424d7c" transform="translate(0,0)"/>
<path d="" fill="#424a79" transform="translate(0,0)"/>
<path d="" fill="#3f4c78" transform="translate(0,0)"/>
<path d="" fill="#445080" transform="translate(0,0)"/>
<path d="" fill="#445281" transform="translate(0,0)"/>
<path d="" fill="#424e7e" transform="translate(0,0)"/>
<path d="" fill="#414e7b" transform="translate(0,0)"/>
<path d="" fill="#475382" transform="translate(0,0)"/>
<path d="" fill="#434d7b" transform="translate(0,0)"/>
<path d="" fill="#414c79" transform="translate(0,0)"/>
<path d="" fill="#465284" transform="translate(0,0)"/>
<path d="" fill="#414f82" transform="translate(0,0)"/>
<path d="" fill="#424f7a" transform="translate(0,0)"/>
<path d="" fill="#434d7c" transform="translate(0,0)"/>
<path d="" fill="#425082" transform="translate(0,0)"/>
<path d="" fill="#445080" transform="translate(0,0)"/>
<path d="" fill="#414b78" transform="translate(0,0)"/>
<path d="" fill="#3f4b7a" transform="translate(0,0)"/>
<path d="" fill="#424e7c" transform="translate(0,0)"/>
<path d="" fill="#42507c" transform="translate(0,0)"/>
<path d="" fill="#414c7b" transform="translate(0,0)"/>
<path d="" fill="#424d7e" transform="translate(0,0)"/>
<path d="" fill="#474f7e" transform="translate(0,0)"/>
<path d="" fill="#455082" transform="translate(0,0)"/>
<path d="" fill="#424e80" transform="translate(0,0)"/>
<path d="" fill="#455180" transform="translate(0,0)"/>
<path d="" fill="#414e7b" transform="translate(0,0)"/>
<path d="" fill="#465284" transform="translate(0,0)"/>
<path d="" fill="#434e7e" transform="translate(0,0)"/>
<path d="" fill="#445081" transform="translate(0,0)"/>
<path d="" fill="#455182" transform="translate(0,0)"/>
<path d="" fill="#434e83" transform="translate(0,0)"/>
<path d="" fill="#44507f" transform="translate(0,0)"/>
<path d="" fill="#434e80" transform="translate(0,0)"/>
<path d="" fill="#445181" transform="translate(0,0)"/>
<path d="" fill="#414c7a" transform="translate(0,0)"/>
<path d="" fill="#435284" transform="translate(0,0)"/>
<path d="" fill="#455180" transform="translate(0,0)"/>
<path d="" fill="#465082" transform="translate(0,0)"/>
<path d="" fill="#475384" transform="translate(0,0)"/>
<path d="" fill="#435181" transform="translate(0,0)"/>
<path d="" fill="#445483" transform="translate(0,0)"/>
<path d="" fill="#44507f" transform="translate(0,0)"/>
<path d="" fill="#455082" transform="translate(0,0)"/>
<path d="" fill="#455181" transform="translate(0,0)"/>
<path d="" fill="#455282" transform="translate(0,0)"/>
<path d="" fill="#445181" transform="translate(0,0)"/>
<path d="" fill="#485781" transform="translate(0,0)"/>
<path d="" fill="#424c78" transform="translate(0,0)"/>
<path d="" fill="#475383" transform="translate(0,0)"/>
<path d="" fill="#424c79" transform="translate(0,0)"/>
<path d="" fill="#465382" transform="translate(0,0)"/>
<path d="" fill="#444e7f" transform="translate(0,0)"/>
<path d="" fill="#435180" transform="translate(0,0)"/>
<path d="" fill="#444f7e" transform="translate(0,0)"/>
<path d="" fill="#445082" transform="translate(0,0)"/>
<path d="" fill="#414f7d" transform="translate(0,0)"/>
<path d="" fill="#454e81" transform="translate(0,0)"/>
<path d="" fill="#415082" transform="translate(0,0)"/>
<path d="" fill="#424c7b" transform="translate(0,0)"/>
<path d="" fill="#445080" transform="translate(0,0)"/>
<path d="" fill="#444f80" transform="translate(0,0)"/>
<path d="" fill="#475081" transform="translate(0,0)"/>
<path d="" fill="#434e81" transform="translate(0,0)"/>
<path d="" fill="#4a5783" transform="translate(0,0)"/>
<path d="" fill="#44517c" transform="translate(0,0)"/>
<path d="" fill="#44507f" transform="translate(0,0)"/>
<path d="" fill="#414f7c" transform="translate(0,0)"/>
<path d="" fill="#424c7c" transform="translate(0,0)"/>
<path d="" fill="#455281" transform="translate(0,0)"/>
<path d="" fill="#424d7b" transform="translate(0,0)"/>
<path d="" fill="#445080" transform="translate(0,0)"/>
<path d="" fill="#434e7e" transform="translate(0,0)"/>
<path d="" fill="#424b7a" transform="translate(0,0)"/>
<path d="" fill="#45517f" transform="translate(0,0)"/>
<path d="" fill="#475282" transform="translate(0,0)"/>
<path d="" fill="#4b5783" transform="translate(0,0)"/>
<path d="" fill="#465080" transform="translate(0,0)"/>
<path d="" fill="#444f80" transform="translate(0,0)"/>
<path d="" fill="#42507f" transform="translate(0,0)"/>
<path d="" fill="#4e5b89" transform="translate(0,0)"/>
<path d="" fill="#455180" transform="translate(0,0)"/>
<path d="" fill="#475382" transform="translate(0,0)"/>
<path d="" fill="#444f81" transform="translate(0,0)"/>
<path d="" fill="#424f7e" transform="translate(0,0)"/>
<path d="" fill="#424e7e" transform="translate(0,0)"/>
<path d="" fill="#444f80" transform="translate(0,0)"/>
<path d="" fill="#444f7d" transform="translate(0,0)"/>
<path d="" fill="#434f7f" transform="translate(0,0)"/>
<path d="" fill="#424f7c" transform="translate(0,0)"/>
<path d="" fill="#474f7f" transform="translate(0,0)"/>
<path d="" fill="#465380" transform="translate(0,0)"/>
<path d="" fill="#445080" transform="translate(0,0)"/>
<path d="" fill="#434e7d" transform="translate(0,0)"/>
<path d="" fill="#434e7c" transform="translate(0,0)"/>
<path d="" fill="#42507f" transform="translate(0,0)"/>
<path d="" fill="#455080" transform="translate(0,0)"/>
<path d="" fill="#4a527f" transform="translate(0,0)"/>
<path d="" fill="#465380" transform="translate(0,0)"/>
<path d="" fill="#434e81" transform="translate(0,0)"/>
<path d="" fill="#424f7e" transform="translate(0,0)"/>
<path d="" fill="#465080" transform="translate(0,0)"/>
<path d="" fill="#414f80" transform="translate(0,0)"/>
<path d="" fill="#46527e" transform="translate(0,0)"/>
<path d="" fill="#434f82" transform="translate(0,0)"/>
<path d="" fill="#405180" transform="translate(0,0)"/>
<path d="" fill="#444f80" transform="translate(0,0)"/>
<path d="" fill="#454f7f" transform="translate(0,0)"/>
<path d="" fill="#434f7f" transform="translate(0,0)"/>
<path d="" fill="#46507f" transform="translate(0,0)"/>
<path d="" fill="#444e7f" transform="translate(0,0)"/>
<path d="" fill="#455280" transform="translate(0,0)"/>
<path d="" fill="#465380" transform="translate(0,0)"/>
<path d="" fill="#434f7f" transform="translate(0,0)"/>
<path d="" fill="#445181" transform="translate(0,0)"/>
<path d="" fill="#424c80" transform="translate(0,0)"/>
<path d="" fill="#444f7f" transform="translate(0,0)"/>
<path d="" fill="#424d7d" transform="translate(0,0)"/>
<path d="" fill="#485180" transform="translate(0,0)"/>
<path d="" fill="#43507f" transform="translate(0,0)"/>
<path d="" fill="#46527f" transform="translate(0,0)"/>
<path d="" fill="#485280" transform="translate(0,0)"/>
<path d="" fill="#42497a" transform="translate(0,0)"/>
<path d="" fill="#444e80" transform="translate(0,0)"/>
<path d="" fill="#414e7c" transform="translate(0,0)"/>
<path d="" fill="#455280" transform="translate(0,0)"/>
<path d="" fill="#425080" transform="translate(0,0)"/>
<path d="" fill="#445180" transform="translate(0,0)"/>
<path d="" fill="#414b79" transform="translate(0,0)"/>
<path d="" fill="#44517f" transform="translate(0,0)"/>
<path d="" fill="#475082" transform="translate(0,0)"/>
<path d="" fill="#444e81" transform="translate(0,0)"/>
<path d="" fill="#434f7f" transform="translate(0,0)"/>
<path d="" fill="#435282" transform="translate(0,0)"/>
<path d="" fill="#424c79" transform="translate(0,0)"/>
<path d="" fill="#445281" transform="translate(0,0)"/>
<path d="" fill="#444f7e" transform="translate(0,0)"/>
<path d="" fill="#455282" transform="translate(0,0)"/>
<path d="" fill="#43507d" transform="translate(0,0)"/>
<path d="" fill="#434f7f" transform="translate(0,0)"/>
<path d="" fill="#435080" transform="translate(0,0)"/>
<path d="" fill="#425182" transform="translate(0,0)"/>
<path d="" fill="#424e7f" transform="translate(0,0)"/>
<path d="" fill="#424e80" transform="translate(0,0)"/>
<path d="" fill="#454f7f" transform="translate(0,0)"/>
<path d="" fill="#414e81" transform="translate(0,0)"/>
<path d="" fill="#424f7e" transform="translate(0,0)"/>
<path d="" fill="#434f82" transform="translate(0,0)"/>
<path d="" fill="#44507f" transform="translate(0,0)"/>
<path d="" fill="#414d7f" transform="translate(0,0)"/>
<path d="" fill="#414f7e" transform="translate(0,0)"/>
<path d="" fill="#434d7f" transform="translate(0,0)"/>
<path d="" fill="#414e7f" transform="translate(0,0)"/>
<path d="" fill="#425080" transform="translate(0,0)"/>
<path d="" fill="#424d78" transform="translate(0,0)"/>
<path d="" fill="#424d7e" transform="translate(0,0)"/>
<path d="" fill="#424d7d" transform="translate(0,0)"/>
<path d="" fill="#434f7e" transform="translate(0,0)"/>
<path d="" fill="#434d7c" transform="translate(0,0)"/>
<path d="" fill="#45517f" transform="translate(0,0)"/>
<path d="" fill="#444f81" transform="translate(0,0)"/>
<path d="" fill="#445283" transform="translate(0,0)"/>
<path d="" fill="#404c77" transform="translate(0,0)"/>
<path d="" fill="#424e7d" transform="translate(0,0)"/>
<path d="" fill="#434d7e" transform="translate(0,0)"/>
<path d="" fill="#434e7c" transform="translate(0,0)"/>
<path d="" fill="#445180" transform="translate(0,0)"/>
<path d="" fill="#434b77" transform="translate(0,0)"/>
<path d="" fill="#424976" transform="translate(0,0)"/>
<path d="" fill="#404c75" transform="translate(0,0)"/>
<path d="" fill="#444f7a" transform="translate(0,0)"/>
<path d="" fill="#414b77" transform="translate(0,0)"/>
<path d="" fill="#3e4774" transform="translate(0,0)"/>
<path d="" fill="#3e4975" transform="translate(0,0)"/>
<path d="" fill="#3f4978" transform="translate(0,0)"/>
<path d="" fill="#3c4775" transform="translate(0,0)"/>
<path d="" fill="#3e4a77" transform="translate(0,0)"/>
<path d="" fill="#3e4876" transform="translate(0,0)"/>
<path d="" fill="#3e4a74" transform="translate(0,0)"/>
<path d="" fill="#414c76" transform="translate(0,0)"/>
<path d="" fill="#3d4a74" transform="translate(0,0)"/>
<path d="" fill="#404976" transform="translate(0,0)"/>
<path d="" fill="#3e4974" transform="translate(0,0)"/>
<path d="" fill="#3d4873" transform="translate(0,0)"/>
<path d="" fill="#3e4974" transform="translate(0,0)"/>
<path d="" fill="#424b77" transform="translate(0,0)"/>
</svg>